<svg width="50" height="41" viewBox="0 0 50 41" fill="none" xmlns="http://www.w3.org/2000/svg">
<path d="M34.8987 0C29.104 0.0877747 24.5384 5.0923 24.5384 10.887V12.2918C14.1782 10.448 9.08589 7.63845 3.46674 1.75598C0.130424 8.25307 3.81794 13.6966 7.85665 16.6818C5.13485 16.6818 2.85212 16.3306 1.09614 14.7503C0.920592 14.6625 0.744945 14.7503 0.832719 14.9259C2.32528 20.3694 7.41758 24.3203 11.3685 25.4617C7.76878 25.4617 5.39818 25.9885 2.85203 24.4081C2.67648 24.3203 2.50083 24.4081 2.5886 24.5837C4.52014 29.9394 8.3833 31.6076 14.0024 31.6076C11.1929 33.7148 7.41758 35.822 0.305875 35.9975C0.0424536 35.9975 -0.133096 36.3487 0.130326 36.5243C2.76425 38.7192 9.26144 40.3874 18.3925 40.3874C33.406 40.3874 45.61 27.042 45.61 10.5358V9.65786C47.9806 8.77992 49.2976 6.67274 49.9999 4.56556C49.9999 4.47778 49.9122 4.39001 49.8243 4.39001L44.8198 6.14599C44.732 6.14599 44.6442 5.97044 44.732 5.88257C46.8394 4.21436 48.4197 2.10718 49.1221 0.0877746C49.1221 0.0877746 49.0343 0 48.9465 0C46.5759 0.965815 44.2931 1.93153 42.5371 2.45838C42.2737 2.54615 41.9225 2.54615 41.6592 2.3706C40.5178 1.75598 37.0936 0 34.8987 0Z" fill="#1DA1F2"/>
</svg>
